<?xml version="1.0" encoding="utf-8"?>
<?xml-stylesheet type="text/xsl" href="rss1.xsl"?>
<rss version="2.0" xmlns:atom="http://www.w3.org/2005/Atom" xmlns:content="http://purl.org/rss/1.0/modules/content/" xmlns:dc="http://purl.org/dc/elements/1.1/" xmlns:media="http://search.yahoo.com/mrss/">
<channel>
 <title>Getty</title>
 <link>http://www.gettyimg.com/</link>
 <atom:link href="http://www.gettyimg.com/" rel="self" type="application/rss+xml" />

 
                <item>
                <title><![CDATA[【Albums (lossy)】Dolby Atmos - Imagine Dragons - Eyes Closed [E-AC3-JOC | 5.1 | 16bit/48kHz | 768kbits]]]></title>
                <link><![CDATA[https://sharemania.us/threads/imagine-dragons-eyes-closed-e-ac3-joc-5-1-16bit-48khz-768kbits.241343/]]></link>
                <description><![CDATA[<article>
<blockquote class="messageText SelectQuoteContainer ugc baseHtml">
<img src="https://a5.mzstatic.com/us/r1000/0/Music211/v4/1d/30/02/1d3002fc-1433-dae6-e814-88e2cf6b3de9/24UMGIM21772.rgb.jpg" class="bbCodeImage LbImage" alt="[​IMG]" data-url="https://a5.mzstatic.com/us/r1000/0/Music211/v4/1d/30/02/1d3002fc-1433-dae6-e814-88e2cf6b3de9/24UMGIM21772.rgb.jpg" style=""> <br>
<div class="ToggleTriggerAnchor bbCodeSpoilerContainer">
<button type="button" class="button bbCodeSpoilerButton ToggleTrigger Tooltip JsOnly" data-target="> .SpoilerTarget"><span>Spoiler: <span class="SpoilerTitle">Media Info</span></span></button>
<div class="SpoilerTarget bbCodeSpoilerText">General<br>
Complete name : 01 Eyes Closed.m4a<br>
Format : MPEG-4<br>
Format profile : Base Media / Version 1<br>
Codec ID : mp41 (iso8/isom/mp41/dash/cmfc)<br>
File size : 18.6 MiB<br>
Duration : 3 min 20 s<br>
Overall bit rate mode : Constant<br>
Overall bit rate : 780 kb/s<br>
Album : Eyes Closed<br>
Album/Performer : Imagine Dragons<br>
Part/Position : 1<br>
Part/Total : 1<br>
Track name : Eyes Closed<br>
Track name/Position : 1<br>
Track name/Total : 1<br>
Performer : Imagine Dragons<br>
Composer : Ben McKee, Dan Reynolds, Mattias Larsson, ROBIN LENNART FREDRIKSSON &amp; Wayne Sermon<br>
Genre : Alternative Rock/General<br>
ContentType : Music<br>
Recorded date : 2024-04-03 11:00:00 UTC<br>
Encoded date : 2024-04-03 19:08:36 UTC<br>
Tagged date : 2024-04-03 19:08:36 UTC<br>
Copyright : ℗© 2024 KIDinaKORNER/Interscope Records<br>
Cover : Yes<br>
Comment : <a href="https://music.amazon.com/albums/B0CZ8DVHLT?trackAsin=B0CZ957913" target="_blank" class="externalLink" rel="nofollow">https://music.amazon.com/albums/B0CZ8DVHLT?trackAsin=B0CZ957913</a><br>
Rating : None<br>
<br>
Audio<br>
ID : 1<br>
Format : E-AC-3 JOC<br>
Format/Info : Enhanced AC-3 with Joint Object Coding<br>
Commercial name : Dolby Digital Plus with Dolby Atmos<br>
Codec ID : ec-3<br>
Duration : 3 min 20 s<br>
Bit rate mode : Constant<br>
Bit rate : 768 kb/s<br>
Channel(s) : 6 channels<br>
Channel layout : L R C LFE Ls Rs<br>
Sampling rate : 48.0 kHz<br>
Frame rate : 31.250 FPS (1536 SPF)<br>
Compression mode : Lossy<br>
Stream size : 18.3 MiB (98%)<br>
Service kind : Complete Main<br>
Encoded date : 2024-04-03 19:08:36 UTC<br>
Tagged date : 2024-04-03 19:08:36 UTC<br>
Complexity index : 16<br>
Number of dynamic objects : 15<br>
Bed channel count : 1 channel<br>
Bed channel configuration : LFE</div>
</div>Ripped by me <img src="styles/default/xenforo/smilies/big_smile-48.png" class="mceSmilie" alt=":)" title="Smile    :)"><br>
<div class="bbCodeBlock bbCodeVfcHH HiddenContent">
<div class="attribution type">Hidden Content:</div>
<blockquote>You must either reply or click 'Like' to see the hidden information contained here.</blockquote>
</div>
<div class="messageTextEndMarker">&nbsp;</div>
</blockquote>
</article>]]></description>
                <author><![CDATA[szymek04sawicki]]></author>
                </item>

                
                <item>
                <title><![CDATA[【HD Live Performances】FEED - iHeartRadio Music Awards 2024 FEED HDTV H264 422 720p MP2-ilya2129]]></title>
                <link><![CDATA[https://sharemania.us/threads/iheartradio-music-awards-2024-feed-hdtv-h264-422-720p-mp2-ilya2129.241342/]]></link>
                <description><![CDATA[<article>
<blockquote class="messageText SelectQuoteContainer ugc baseHtml">
<div style="text-align: center"><img src="https://i123.fastpic.org/big/2024/0402/d1/6973df80b36b971e033b15e887a24fd1.png?r=1" class="bbCodeImage LbImage" alt="[​IMG]" data-url="https://i123.fastpic.org/big/2024/0402/d1/6973df80b36b971e033b15e887a24fd1.png?r=1" style=""><br>
<br>
<a href="https://postimg.cc/vDN3mCmq" target="_blank" class="externalLink" rel="nofollow"><img src="https://i.postimg.cc/vDN3mCmq/vlcsnap-2024-04-03-10h10m43s252.png" class="bbCodeImage LbImage" alt="[​IMG]" data-url="https://i.postimg.cc/vDN3mCmq/vlcsnap-2024-04-03-10h10m43s252.png"></a> <a href="https://postimg.cc/yk3n3ngV" target="_blank" class="externalLink" rel="nofollow"><img src="https://i.postimg.cc/yk3n3ngV/vlcsnap-2024-04-03-10h10m45s014.png" class="bbCodeImage LbImage" alt="[​IMG]" data-url="https://i.postimg.cc/yk3n3ngV/vlcsnap-2024-04-03-10h10m45s014.png"></a> <a href="https://postimg.cc/75v9370S" target="_blank" class="externalLink" rel="nofollow"><img src="https://i.postimg.cc/75v9370S/vlcsnap-2024-04-03-10h10m46s511.png" class="bbCodeImage LbImage" alt="[​IMG]" data-url="https://i.postimg.cc/75v9370S/vlcsnap-2024-04-03-10h10m46s511.png"></a> <a href="https://postimg.cc/2qGxNKJx" target="_blank" class="externalLink" rel="nofollow"><img src="https://i.postimg.cc/2qGxNKJx/vlcsnap-2024-04-03-10h10m48s440.png" class="bbCodeImage LbImage" alt="[​IMG]" data-url="https://i.postimg.cc/2qGxNKJx/vlcsnap-2024-04-03-10h10m48s440.png"></a> <a href="https://postimg.cc/hX9rpj16" target="_blank" class="externalLink" rel="nofollow"><img src="https://i.postimg.cc/hX9rpj16/vlcsnap-2024-04-03-10h10m50s147.png" class="bbCodeImage LbImage" alt="[​IMG]" data-url="https://i.postimg.cc/hX9rpj16/vlcsnap-2024-04-03-10h10m50s147.png"></a> <a href="https://postimg.cc/B84Cy0h6" target="_blank" class="externalLink" rel="nofollow"><img src="https://i.postimg.cc/B84Cy0h6/vlcsnap-2024-04-03-10h10m52s650.png" class="bbCodeImage LbImage" alt="[​IMG]" data-url="https://i.postimg.cc/B84Cy0h6/vlcsnap-2024-04-03-10h10m52s650.png"></a> <br>
<br>
Ludacris, T-Pain - "Yeah!", "All I Do is Win", "Move Bitch"<br>
Justin Timberlake - ”Selfish”, “No Angels”<br>
Jennifer Hudson, Cher - "If I Could Turn Back Time", "Believe"<br>
TLC, Latto - "No Scrubs", "Waterfall"<br>
Green Day - “Bobby Sox”, “Basket Case”<br>
Tate McRae - “Greedy”, “Exes”<br>
Jelly Roll, Lainey Wilson - “Save Me”<br>
​</div><br>
<div class="bbCodeBlock bbCodeCode">
<div class="type">Code:</div>
<pre>General
ID                                       : 0 (0x0)
Complete name                            : C:\Recordings\iHeartRadio Music Awards 2024 FEED HDTV H264 422 720p MP2-ilya2129.ts
Format                                   : MPEG-TS
File size                                : 20.1 GiB
Duration                                 : 1 h 27 min
Overall bit rate mode                    : Variable
Overall bit rate                         : 32.7 Mb/s
Frame rate                               : 59.940 FPS
Movie name                               : 2024 IHEARTRADIO MUSIC AWARDS
Law rating                               : TV-14 (DLSV)

Video
ID                                       : 308 (0x134)
Menu ID                                  : 1 (0x1)
Format                                   : AVC
Format/Info                              : Advanced Video Codec
Format profile                           : High 4:2:2@L3.2
Format settings                          : CABAC / 3 Ref Frames
Format settings, CABAC                   : Yes
Format settings, Reference frames        : 3 frames
Format settings, GOP                     : M=4, N=24
Format settings, Slice count             : 3 slices per frame
Codec ID                                 : 27
Duration                                 : 1 h 27 min
Bit rate mode                            : Constant
Bit rate                                 : 30.0 Mb/s
Nominal bit rate                         : 31.9 Mb/s
Width                                    : 1 280 pixels
Height                                   : 720 pixels
Display aspect ratio                     : 16:9
Frame rate                               : 59.940 (60000/1001) FPS
Color space                              : YUV
Chroma subsampling                       : 4:2:2
Bit depth                                : 8 bits
Scan type                                : Progressive
Bits/(Pixel*Frame)                       : 0.543
Stream size                              : 18.4 GiB (92%)
Color range                              : Limited
Color primaries                          : BT.709
Transfer characteristics                 : BT.709
Matrix coefficients                      : BT.709

Audio #1
ID                                       : 256 (0x100)
Menu ID                                  : 1 (0x1)
Format                                   : MPEG Audio
Format version                           : Version 1
Format profile                           : Layer 2
Codec ID                                 : 3
Duration                                 : 1 h 27 min
Bit rate mode                            : Constant
Bit rate                                 : 256 kb/s
Channel(s)                               : 2 channels
Sampling rate                            : 48.0 kHz
Frame rate                               : 41.667 FPS (1152 SPF)
Compression mode                         : Lossy
Delay relative to video                  : 15 ms
Stream size                              : 161 MiB (1%)
Language                                 : English
Language, more info                      : Clean effects

Audio #2
ID                                       : 257 (0x101)
Menu ID                                  : 1 (0x1)
Format                                   : MPEG Audio
Format version                           : Version 1
Format profile                           : Layer 2
Codec ID                                 : 3
Duration                                 : 1 h 27 min
Bit rate mode                            : Constant
Bit rate                                 : 256 kb/s
Channel(s)                               : 2 channels
Sampling rate                            : 48.0 kHz
Frame rate                               : 41.667 FPS (1152 SPF)
Compression mode                         : Lossy
Delay relative to video                  : 15 ms
Stream size                              : 161 MiB (1%)
Language                                 : English
Language, more info                      : Clean effects

Audio #3
ID                                       : 258 (0x102)
Menu ID                                  : 1 (0x1)
Format                                   : MPEG Audio
Format version                           : Version 1
Format profile                           : Layer 2
Codec ID                                 : 3
Duration                                 : 1 h 27 min
Bit rate mode                            : Constant
Bit rate                                 : 256 kb/s
Channel(s)                               : 2 channels
Sampling rate                            : 48.0 kHz
Frame rate                               : 41.667 FPS (1152 SPF)
Compression mode                         : Lossy
Delay relative to video                  : 15 ms
Stream size                              : 161 MiB (1%)
Language                                 : English
Language, more info                      : Clean effects

Audio #4
ID                                       : 259 (0x103)
Menu ID                                  : 1 (0x1)
Format                                   : MPEG Audio
Format version                           : Version 1
Format profile                           : Layer 2
Codec ID                                 : 3
Duration                                 : 1 h 27 min
Bit rate mode                            : Constant
Bit rate                                 : 256 kb/s
Channel(s)                               : 2 channels
Sampling rate                            : 48.0 kHz
Frame rate                               : 41.667 FPS (1152 SPF)
Compression mode                         : Lossy
Delay relative to video                  : 15 ms
Stream size                              : 161 MiB (1%)
Language                                 : English
Language, more info                      : Clean effects

Text #1
ID                                       : 308 (0x134)-CC1
Menu ID                                  : 1 (0x1)
Format                                   : EIA-608
Muxing mode                              : SCTE 128 / DTVCC Transport
Muxing mode, more info                   : Muxed in Video #1
Duration                                 : 1 h 27 min
Duration of the visible content          : 1 h 27 min
Start time (commands)                    : 1 h 58 min
Start time                               : 1 h 58 min
End time                                 : 3 h 26 min
Bit rate mode                            : Constant
Stream size                              : 0.00 Byte (0%)
Type of the first event                  : RollUp

Text #2
ID                                       : 308 (0x134)-1
Menu ID                                  : 1 (0x1)
Format                                   : EIA-708
Muxing mode                              : SCTE 128 / DTVCC Transport
Muxing mode, more info                   : Muxed in Video #1
Duration                                 : 1 h 27 min
Bit rate mode                            : Constant
Stream size                              : 0.00 Byte (0%)


</pre>
</div><div style="text-align: center"><br>
<div class="bbCodeBlock bbCodeVfcHH HiddenContent">
<div class="attribution type">Hidden Content:</div>
<blockquote>You must reply before you can see the hidden data contained here.</blockquote>
</div></div>
<div class="messageTextEndMarker">&nbsp;</div>
</blockquote>
</article>]]></description>
                <author><![CDATA[ilya2129]]></author>
                </item>

                </channel></rss>